<svg width="49" height="48" viewBox="0 0 49 48" fill="none" xmlns="http://www.w3.org/2000/svg">
<path d="M37.8126 22.2975L32.1751 27.2175L33.8638 34.5425C33.9532 34.9254 33.9277 35.3262 33.7905 35.6947C33.6533 36.0632 33.4106 36.3831 33.0926 36.6144C32.7746 36.8457 32.3954 36.9782 32.0026 36.9951C31.6097 37.0121 31.2206 36.913 30.8838 36.71L24.4951 32.835L18.1201 36.71C17.7833 36.913 17.3941 37.0121 17.0013 36.9951C16.6084 36.9782 16.2293 36.8457 15.9113 36.6144C15.5933 36.3831 15.3505 36.0632 15.2134 35.6947C15.0762 35.3262 15.0507 34.9254 15.1401 34.5425L16.8263 27.225L11.1876 22.2975C10.8893 22.0403 10.6737 21.7007 10.5676 21.3214C10.4616 20.9421 10.4699 20.54 10.5915 20.1654C10.7131 19.7908 10.9426 19.4604 11.2512 19.2158C11.5599 18.9711 11.9338 18.823 12.3263 18.79L19.7588 18.1462L22.6601 11.2262C22.8116 10.8631 23.0671 10.553 23.3945 10.3348C23.722 10.1167 24.1066 10.0002 24.5001 10.0002C24.8935 10.0002 25.2781 10.1167 25.6056 10.3348C25.933 10.553 26.1885 10.8631 26.3401 11.2262L29.2501 18.1462L36.6801 18.79C37.0725 18.823 37.4465 18.9711 37.7551 19.2158C38.0637 19.4604 38.2932 19.7908 38.4148 20.1654C38.5365 20.54 38.5448 20.9421 38.4387 21.3214C38.3327 21.7007 38.117 22.0403 37.8188 22.2975H37.8126Z" fill="#E3E1E4"/>
</svg>
